<svg xmlns="http://www.w3.org/2000/svg" viewBox="0 0 900 1100">
  <defs>
    <linearGradient id="g" x1="0" y1="0" x2="1" y2="1">
      <stop offset="0" stop-color="#fff6db"/>
      <stop offset="0.45" stop-color="#ffd7e9"/>
      <stop offset="1" stop-color="#d7e9ff"/>
    </linearGradient>
    <filter id="soft"><feGaussianBlur stdDeviation="25"/></filter>
  </defs>
  <rect width="900" height="1100" rx="80" fill="url(#g)"/>
  <circle cx="240" cy="250" r="145" fill="#fff" opacity=".5" filter="url(#soft)"/>
  <circle cx="680" cy="780" r="185" fill="#fff" opacity=".55" filter="url(#soft)"/>
  <g transform="translate(160 230)">
    <path d="M285 0c108 0 206 75 226 188 13 75-12 159-60 216-31 37-43 74-35 122l19 116H141l18-110c8-50-7-89-38-126-55-65-74-153-45-235C107 71 188 0 285 0z" fill="#2f2f39" opacity=".88"/>
    <ellipse cx="295" cy="360" rx="170" ry="198" fill="#fff3e9"/>
    <path d="M138 282c22-117 101-181 199-181 87 0 155 49 188 137-88-15-185-33-286-97-41 36-75 82-101 141z" fill="#2c2f38"/>
    <circle cx="235" cy="366" r="12" fill="#34323d"/>
    <circle cx="356" cy="366" r="12" fill="#34323d"/>
    <path d="M267 443c43 22 79 22 117 0" stroke="#de8895" stroke-width="14" stroke-linecap="round" fill="none"/>
    <path d="M184 590h234c38 0 70 30 76 67l38 237H65l39-237c6-37 38-67 80-67z" fill="#fff" opacity=".88"/>
    <path d="M185 590c53 68 171 71 233 0" fill="none" stroke="#ffd7e9" stroke-width="25" stroke-linecap="round"/>
  </g>
  <text x="70" y="1010" font-family="'Arial','Microsoft YaHei',sans-serif" font-size="52" fill="#725b66" opacity=".78">封茗囧菌 · Mandi Sa</text>
</svg>